<svg xmlns="http://www.w3.org/2000/svg" xmlns:xlink="http://www.w3.org/1999/xlink" viewBox="0,0,256,256" width="26px" height="26px" fill-rule="nonzero"><g fill-opacity="0" fill="#dddddd" fill-rule="nonzero" stroke="none" stroke-width="1" stroke-linecap="butt" stroke-linejoin="miter" stroke-miterlimit="10" stroke-dasharray="" stroke-dashoffset="0" font-family="none" font-weight="none" font-size="none" text-anchor="none" style="mix-blend-mode: normal"><path d="M0,256v-256h256v256z" id="bgRectangle"></path></g><g fill="#000000" fill-rule="nonzero" stroke="none" stroke-width="1" stroke-linecap="butt" stroke-linejoin="miter" stroke-miterlimit="10" stroke-dasharray="" stroke-dashoffset="0" font-family="none" font-weight="none" font-size="none" text-anchor="none" style="mix-blend-mode: normal"><g transform="scale(9.84615,9.84615)"><path d="M11.46875,0.96875l-0.5625,3.5625c-0.85547,0.21094 -1.67187,0.52734 -2.40625,0.96875l-2.9375,-2.09375l-2.125,2.125l2.0625,2.9375c-0.44531,0.73828 -0.78516,1.54688 -1,2.40625l-3.53125,0.59375v3l3.53125,0.625c0.21484,0.85938 0.55469,1.66797 1,2.40625l-2.09375,2.9375l2.125,2.125l2.9375,-2.0625c0.73438,0.44141 1.55078,0.75781 2.40625,0.96875l0.59375,3.5625h3l0.65625,-3.5625c0.85156,-0.21484 1.64453,-0.55469 2.375,-1l2.96875,2.09375l2.125,-2.125l-2.125,-2.9375c0.4375,-0.73047 0.78906,-1.52734 1,-2.375l3.5625,-0.65625v-3l-3.5625,-0.59375c-0.21094,-0.84766 -0.5625,-1.64453 -1,-2.375l2.09375,-2.96875l-2.125,-2.125l-2.9375,2.125c-0.73047,-0.44141 -1.55078,-0.78516 -2.40625,-1l-0.625,-3.5625zM13,6.46875c3.60547,0 6.53125,2.92578 6.53125,6.53125c0,3.60547 -2.92578,6.53125 -6.53125,6.53125c-3.60547,0 -6.53125,-2.92969 -6.53125,-6.53125c0,-3.60156 2.92578,-6.53125 6.53125,-6.53125zM13,8.0625c-2.71875,0 -4.9375,2.21875 -4.9375,4.9375c0,2.71875 2.21875,4.9375 4.9375,4.9375c2.71875,0 4.9375,-2.21875 4.9375,-4.9375c0,-2.71875 -2.21875,-4.9375 -4.9375,-4.9375zM12.96875,10.9375c1.14453,0 2.09375,0.91406 2.09375,2.0625c0,1.14453 -0.94922,2.0625 -2.09375,2.0625c-1.14453,0 -2.0625,-0.91797 -2.0625,-2.0625c0,-1.14844 0.91797,-2.0625 2.0625,-2.0625z"></path></g></g></svg>